<svg xmlns="http://www.w3.org/2000/svg" width="189" height="49" viewBox="0 0 189 49" fill="none">
<g clip-path="url(#clip0_2_4)">
<path d="M24.6236 14.9844L31.573 8.03906L36.4977 3.11719C32.9957 1.09375 28.9464 0 24.6236 0C20.3008 0 16.2516 1.09375 12.6948 3.0625L17.6196 7.98438L24.6236 14.9844Z" fill="#0ACF97"/>
<path d="M45.9641 12.3047C44.8697 10.3906 43.5017 8.64062 41.9149 7.05469L41.8602 7L37.1543 11.7031L24.6236 24.3906L12.0929 11.7031L7.38709 7L7.33237 7.05469C5.74551 8.58594 4.37753 10.3359 3.28315 12.3047C1.20382 15.9141 0 20.125 0 24.6094C0 37.0781 9.30226 47.3594 21.2858 49V42.2734C12.9684 40.7422 6.62102 33.4141 6.62102 24.6094C6.62102 21.9844 7.16821 19.4688 8.20788 17.2266L24.6236 33.1953L41.0394 17.2266C42.079 19.4688 42.6262 21.9844 42.6262 24.6094C42.6262 33.4141 36.2788 40.7422 27.9615 42.2734V49C39.945 47.3594 49.2472 37.0781 49.2472 24.6094C49.2472 20.125 48.0434 15.9141 45.9641 12.3047Z" fill="#0ACF97"/>
<path d="M95.3208 34.9453H88.8639V24.2266C88.8639 21.4922 87.9337 20.0703 86.0733 20.0703C85.0336 20.0703 84.2128 20.5078 83.6656 21.3281C83.1184 22.1484 82.8448 23.1328 82.8448 24.3359V34.9453H76.388V23.7344C76.388 21.2734 75.4577 20.0703 73.5973 20.0703C72.6123 20.0703 71.7915 20.4531 71.2444 21.2734C70.6424 22.0938 70.3689 23.0781 70.3689 24.2813V34.8906H63.8573V15.3125H70.0405V18.0469H70.0953C70.5877 17.1172 71.3538 16.3516 72.3935 15.75C73.4331 15.1484 74.6369 14.8203 76.0049 14.8203C78.7956 14.8203 80.7655 15.9141 81.9146 18.1563C83.3373 15.9141 85.4166 14.8203 88.1526 14.8203C89.8489 14.8203 91.2169 15.2578 92.366 16.0781C93.4603 16.9531 94.2264 17.9375 94.6642 19.0859C95.1019 20.2344 95.3208 21.4922 95.3208 22.8047V34.9453Z" fill="white"/>
<path d="M122.024 25.0469C122.024 27.9453 121.203 30.4063 119.507 32.4297C117.81 34.4531 115.567 35.4922 112.721 35.4922C111.518 35.4922 110.369 35.2734 109.274 34.7813C108.18 34.2891 107.359 33.6328 106.757 32.8125H106.702V44.4063H100.246V15.3125H106.374V17.7188H106.484C107.14 16.8438 107.961 16.1328 109.055 15.5859C110.15 15.0391 111.354 14.7656 112.721 14.7656C115.457 14.7656 117.701 15.75 119.452 17.7734C121.148 19.7969 122.024 22.2031 122.024 25.0469ZM115.786 25.0469C115.786 23.6797 115.403 22.5313 114.582 21.5469C113.761 20.5625 112.612 20.0703 111.189 20.0703C109.767 20.0703 108.672 20.5625 107.797 21.6016C106.921 22.6406 106.484 23.7891 106.484 25.1016C106.484 26.4141 106.921 27.6172 107.797 28.6016C108.672 29.5859 109.821 30.1328 111.189 30.1328C112.557 30.1328 113.761 29.6406 114.582 28.6563C115.348 27.6172 115.786 26.4688 115.786 25.0469Z" fill="white"/>
<path d="M141.175 17.4453L137.619 21.1094C136.36 19.9062 134.992 19.3594 133.515 19.3594C132.858 19.3594 132.256 19.4687 131.764 19.7422C131.271 20.0156 131.052 20.3984 131.052 20.9453C131.052 21.4922 131.326 21.875 131.818 22.0938C132.311 22.3125 133.241 22.5859 134.664 22.9141C138.823 23.8438 140.902 25.8672 140.902 28.875C140.902 31.1719 140.081 32.8672 138.439 33.9609C136.798 35.0547 134.828 35.6016 132.53 35.6016C130.888 35.6016 129.301 35.3281 127.769 34.8359C126.237 34.2891 124.979 33.5781 123.994 32.5937L127.605 28.7656C128.918 30.2422 130.56 30.9531 132.42 30.9531C133.077 30.9531 133.569 30.7891 134.062 30.5156C134.5 30.2422 134.773 29.8047 134.773 29.2578C134.773 28.6562 134.5 28.2734 133.953 27.9453C133.405 27.6719 132.366 27.3438 130.888 27.0156C127.058 26.1406 125.197 24.2266 125.197 21.3281C125.197 19.1953 126.018 17.5547 127.66 16.4063C129.301 15.3125 131.217 14.7109 133.351 14.7109C136.579 14.7109 139.206 15.6406 141.175 17.4453Z" fill="white"/>
<path d="M164.158 25.375C164.158 26.0859 164.158 26.5781 164.103 26.9063H149.876C149.985 27.9453 150.478 28.8203 151.408 29.5313C152.338 30.2422 153.378 30.5703 154.582 30.5703C156.497 30.5703 157.92 29.9141 158.904 28.5469L163.391 31.3906C161.476 34.1797 158.521 35.5469 154.472 35.5469C151.408 35.5469 148.836 34.6172 146.757 32.7578C144.677 30.8984 143.638 28.3828 143.638 25.1563C143.638 21.9297 144.623 19.4688 146.647 17.5547C148.672 15.6406 151.189 14.6562 154.253 14.6562C157.318 14.6562 159.561 15.5859 161.367 17.5C163.227 19.4688 164.158 22.0391 164.158 25.375ZM149.876 22.9141H158.193C158.193 21.8203 157.865 20.9453 157.208 20.2344C156.552 19.5234 155.567 19.1953 154.363 19.1953C153.159 19.1953 152.119 19.5781 151.299 20.2891C150.423 21 149.931 21.875 149.876 22.9141Z" fill="white"/>
<path d="M185.826 17.5547C187.906 19.4687 189 21.9297 189 25.1016C189 28.2734 187.96 30.7344 185.826 32.7031C183.747 34.6719 181.12 35.6016 178.056 35.6016C174.992 35.6016 172.42 34.6172 170.341 32.7031C168.261 30.7344 167.167 28.2188 167.167 25.1016C167.167 21.9844 168.207 19.4687 170.341 17.5547C172.42 15.6406 174.992 14.7109 178.056 14.7109C181.12 14.7109 183.692 15.6406 185.826 17.5547ZM182.707 25.0469C182.707 23.7344 182.27 22.5313 181.449 21.5469C180.628 20.5625 179.479 20.0703 178.001 20.0703C176.524 20.0703 175.43 20.5625 174.609 21.5469C173.788 22.5313 173.405 23.6797 173.405 25.0469C173.405 26.4141 173.843 27.6172 174.664 28.6016C175.484 29.5859 176.633 30.1328 178.056 30.1328C179.479 30.1328 180.628 29.6406 181.449 28.6016C182.324 27.6172 182.707 26.4141 182.707 25.0469Z" fill="white"/>
</g>
<defs>
<clipPath id="clip0_2_4">
<rect width="189" height="49" fill="white"/>
</clipPath>
</defs>
</svg>