<svg width="28" height="28" viewBox="0 0 28 28" fill="none" xmlns="http://www.w3.org/2000/svg">
<path d="M23.3333 3.39422H21.6347V1.27244C21.6347 0.569333 21.0653 0 20.3622 0C19.6591 0 19.0898 0.569333 19.0898 1.27244V3.39422H8.91022V1.27244C8.91022 0.569333 8.34089 0 7.63778 0C6.93467 0 6.36533 0.569333 6.36533 1.27244V3.39422H4.66667C2.09067 3.39422 0 5.48178 0 8.06089V23.3333C0 25.9124 2.08756 28 4.66667 28H23.3333C25.9124 28 28 25.9124 28 23.3333V8.06089C28 5.48178 25.9124 3.39422 23.3333 3.39422ZM4.66667 5.93911H6.36533V6.36222C6.36533 7.06533 6.93467 7.63467 7.63778 7.63467C8.34089 7.63467 8.91022 7.06533 8.91022 6.36222V5.93911H19.0898V6.36222C19.0898 7.06533 19.6591 7.63467 20.3622 7.63467C21.0653 7.63467 21.6347 7.06533 21.6347 6.36222V5.93911H23.3333C24.5031 5.93911 25.452 6.888 25.4551 8.06089V9.33022H2.54489V8.06089C2.54489 6.888 3.49378 5.94222 4.66667 5.93911ZM23.3333 25.4551H4.66667C3.49689 25.4551 2.548 24.5031 2.54489 23.3333V11.8751H25.4551V23.3333C25.4551 24.5031 24.5062 25.452 23.3333 25.4551Z" fill="#6058CE"/>
</svg>
