<svg width="40" height="40" viewBox="0 0 40 40" fill="none" xmlns="http://www.w3.org/2000/svg">
<g clip-path="url(#clip0_84_50)">
<path d="M4.8291 6.96815C14.1265 -3.8524 31.3667 -1.71806 37.8091 10.9233C33.2719 10.925 26.1698 10.9208 22.3216 10.9233C19.5321 10.9233 17.7291 10.8606 15.7794 11.8881C13.4869 13.0961 11.7552 15.3333 11.1517 17.9643L4.8291 6.96815Z" fill="#F84437"/>
<path d="M13.3467 20.0016C13.3467 23.6692 16.329 26.6521 19.9936 26.6521C23.6583 26.6521 26.6415 23.6692 26.6415 20.0016C26.6415 16.334 23.6591 13.3511 19.9936 13.3511C16.3265 13.3486 13.3467 16.334 13.3467 20.0016Z" fill="#2299F8"/>
<path d="M22.5721 28.707C18.8421 29.8139 14.475 28.5866 12.0845 24.4558C10.2597 21.3057 5.43413 12.9029 3.24474 9.07983C-4.4349 20.8509 2.18273 36.8891 16.1221 39.6278L22.5721 28.707Z" fill="#5ACF5F"/>
<path d="M26.1664 13.3486C29.2736 16.2387 29.9509 20.9195 27.8461 24.5462C26.2611 27.2816 21.1983 35.8248 18.7466 39.9598C33.1092 40.8443 43.5784 26.7683 38.8493 13.3452L26.1664 13.3477V13.3486Z" fill="#FFC107"/>
</g>
<defs>
<clipPath id="clip0_84_50">
<rect width="40" height="40" fill="white"/>
</clipPath>
</defs>
</svg>
