<svg width="15" height="15" viewBox="0 0 15 15" fill="none" xmlns="http://www.w3.org/2000/svg">
<g clip-path="url(#clip0_84_185)">
<path d="M7.5 0C3.35758 0 0 3.35758 0 7.5C0 11.6424 3.35758 15 7.5 15C11.6424 15 15 11.6424 15 7.5C14.9954 3.35991 11.6401 0.00464396 7.5 0ZM7.5 14.0712C3.87074 14.0712 0.928793 11.1293 0.928793 7.5C0.928793 3.87074 3.87074 0.928793 7.5 0.928793C11.1293 0.928793 14.0712 3.87074 14.0712 7.5C14.0666 11.1269 11.1269 14.0666 7.5 14.0712Z" fill="#716B6B"/>
<path d="M7.96444 7.30685V4.481C7.96444 4.22558 7.75546 4.0166 7.50004 4.0166C7.24462 4.0166 7.03564 4.22558 7.03564 4.481V7.49957C7.03564 7.62264 7.08441 7.74106 7.17264 7.82697L8.67961 9.33394C8.86072 9.51505 9.15561 9.51505 9.33673 9.33394C9.51784 9.15282 9.51784 8.85793 9.33673 8.67682L7.96444 7.30685Z" fill="#716B6B"/>
</g>
<defs>
<clipPath id="clip0_84_185">
<rect width="15" height="15" fill="white"/>
</clipPath>
</defs>
</svg>
