<svg width="32" height="25" viewBox="0 0 32 25" fill="none" xmlns="http://www.w3.org/2000/svg">
<g id="Layer_1" clip-path="url(#clip0_94_205)">
<path id="Vector" d="M20.5447 5.30433L15.0438 11.2312L12.4304 8.41586C11.9428 7.89279 11.1276 7.86586 10.6095 8.35432C10.0914 8.84663 10.0647 9.66971 10.5524 10.1928L14.1066 14.0236C14.3504 14.2889 14.6895 14.4351 15.0476 14.4351C15.4057 14.4351 15.7447 14.2889 15.9885 14.0236L22.4304 7.08125C22.9181 6.55817 22.8914 5.73509 22.3695 5.24279C21.8514 4.75048 21.0323 4.7774 20.5485 5.30433H20.5447Z" fill="#6058CE"/>
<path id="Vector_2" d="M30.8571 16.9231H29.7143V2.30769C29.7143 1.03462 28.6895 0 27.4286 0H4.57143C3.31048 0 2.28571 1.03462 2.28571 2.30769V16.9231H1.14286C0.510476 16.9231 0 17.4385 0 18.0769V21.5385C0 23.45 1.53524 25 3.42857 25H28.5714C30.4648 25 32 23.45 32 21.5385V18.0769C32 17.4385 31.4895 16.9231 30.8571 16.9231ZM4.57143 2.30769H27.4286V16.9231H20.5714C19.939 16.9231 19.4286 17.4385 19.4286 18.0769H12.5714C12.5714 17.4385 12.061 16.9231 11.4286 16.9231H4.57143V2.30769ZM29.7143 21.5385C29.7143 22.1731 29.2 22.6923 28.5714 22.6923H3.42857C2.8 22.6923 2.28571 22.1731 2.28571 21.5385V19.2308H10.5905C10.9867 19.9192 11.7257 20.3846 12.5714 20.3846H19.4286C20.2743 20.3846 21.0133 19.9192 21.4095 19.2308H29.7143V21.5385Z" fill="#6058CE"/>
</g>
<defs>
<clipPath id="clip0_94_205">
<rect width="32" height="25" fill="white"/>
</clipPath>
</defs>
</svg>
