<svg width="22" height="22" viewBox="0 0 22 22" fill="none" xmlns="http://www.w3.org/2000/svg">
<g clip-path="url(#clip0_84_138)">
<path d="M12.8333 0H9.16667C4.10667 0 0 4.10667 0 9.16667V12.8333C0 17.8933 4.10667 22 9.16667 22H12.8333C17.8933 22 22 17.8933 22 12.8333V9.16667C22 4.10667 17.8933 0.0122222 12.8333 0ZM15.8522 9.21556L10.56 14.5078C10.3278 14.74 10.0222 14.8622 9.69222 14.8622C9.36222 14.8622 9.04444 14.7278 8.82444 14.4833L6.16 11.7211C5.69556 11.2322 5.70778 10.4622 6.19667 9.98556C6.68556 9.52111 7.45556 9.53333 7.93222 10.0222L9.74111 11.8922L14.1533 7.48C14.63 7.00333 15.4122 7.00333 15.8889 7.48C16.3656 7.95667 16.3656 8.73889 15.8889 9.21556H15.8522Z" fill="#0ACF97"/>
</g>
<defs>
<clipPath id="clip0_84_138">
<rect width="22" height="22" fill="white"/>
</clipPath>
</defs>
</svg>
