<svg width="57" height="45" viewBox="0 0 57 45" fill="none" xmlns="http://www.w3.org/2000/svg">
<mask id="mask0_399_2" style="mask-type:luminance" maskUnits="userSpaceOnUse" x="17" y="0" width="22" height="13">
<path d="M38.071 0H17.5991V12.885H38.071V0Z" fill="white"/>
</mask>
<g mask="url(#mask0_399_2)">
<path d="M27.8349 12.8849L33.8206 6.899L38.071 2.6491C34.9391 0.911694 31.4166 4.23425e-05 27.8351 1.47494e-09C24.2536 -4.23395e-05 20.731 0.911526 17.5991 2.64886L21.849 6.89876L27.8349 12.8849Z" fill="#0ACF97"/>
</g>
<path d="M28.018 44.2343C23.4853 44.2338 19.0632 42.8334 15.3565 40.2244C11.6498 37.6155 8.83936 33.9254 7.30936 29.6586C5.77936 25.3918 5.60451 20.7566 6.80869 16.3867C8.01288 12.0168 10.5373 8.12543 14.0369 5.24463L16.1447 7.3524L28.0861 19.2937L40.026 7.3524L42.073 5.30538C45.5573 8.19451 48.0655 12.0882 49.2554 16.4553C50.4453 20.8224 50.259 25.4503 48.722 29.7076C47.1849 33.9649 44.3719 37.6444 40.6666 40.2442C36.9614 42.8439 32.5444 44.2373 28.018 44.2343Z" fill="#0ACF97"/>
<path d="M37.4642 11.0327H18.1754C13.8981 11.0327 10.4307 14.5001 10.4307 18.7774V22.0648C10.4307 26.3421 13.8981 29.8095 18.1754 29.8095H37.4642C41.7415 29.8095 45.2089 26.3421 45.2089 22.0648V18.7774C45.2089 14.5001 41.7415 11.0327 37.4642 11.0327Z" fill="#6564DF"/>
<path d="M19.294 12.4456C17.7166 12.4457 16.1747 12.9135 14.8632 13.7899C13.5516 14.6663 12.5295 15.9119 11.9259 17.3693C11.3223 18.8266 11.1644 20.4302 11.4721 21.9772C11.7799 23.5243 12.5395 24.9454 13.6549 26.0608C14.3937 26.8037 15.2725 27.3927 16.2404 27.7937C17.2084 28.1947 18.2462 28.3997 19.294 28.397H36.3456C37.923 28.3969 39.4649 27.9291 40.7764 27.0527C42.0879 26.1763 43.1101 24.9306 43.7137 23.4733C44.3173 22.016 44.4752 20.4124 44.1674 18.8653C43.8597 17.3183 43.1001 15.8972 41.9847 14.7818C41.2459 14.039 40.3671 13.45 39.3991 13.049C38.4312 12.6481 37.3933 12.443 36.3456 12.4458H19.294M19.294 10.2456H36.3456C39.0444 10.2456 41.6327 11.3177 43.541 13.226C45.4493 15.1344 46.5214 17.7226 46.5214 20.4214C46.5214 23.1202 45.4493 25.7085 43.541 27.6168C41.6327 29.5251 39.0444 30.5972 36.3456 30.5972H19.294C16.5952 30.5972 14.0069 29.5251 12.0986 27.6168C10.1903 25.7085 9.11816 23.1202 9.11816 20.4214C9.11816 17.7226 10.1903 15.1344 12.0986 13.226C14.0069 11.3177 16.5952 10.2456 19.294 10.2456Z" fill="white"/>
<mask id="mask1_399_2" style="mask-type:luminance" maskUnits="userSpaceOnUse" x="0" y="28" width="6" height="13">
<path d="M5.50043 28.458H0V40.971H5.50043V28.458Z" fill="white"/>
</mask>
<g mask="url(#mask1_399_2)">
<path d="M5.50043 39.8115V29.6153C5.49983 29.4364 5.45792 29.2601 5.37797 29.1001C5.29802 28.94 5.1822 28.8006 5.03952 28.6927C4.89684 28.5848 4.73117 28.5113 4.55541 28.4779C4.37966 28.4445 4.19857 28.4522 4.02627 28.5003C2.87486 28.8105 1.85721 29.4903 1.12978 30.4352C0.402344 31.3801 0.00540895 32.5377 0 33.7302C0 35.4727 1.85848 38.3736 3.41517 40.4978C3.55953 40.6938 3.76211 40.8392 3.99399 40.9132C4.22588 40.9872 4.47522 40.9861 4.70643 40.91C4.93764 40.8339 5.1389 40.6867 5.28148 40.4894C5.42407 40.2921 5.5007 40.0549 5.50043 39.8115Z" fill="white"/>
</g>
<mask id="mask2_399_2" style="mask-type:luminance" maskUnits="userSpaceOnUse" x="51" y="28" width="6" height="13">
<path d="M56.9999 28.458H51.4995V40.971H56.9999V28.458Z" fill="white"/>
</mask>
<g mask="url(#mask2_399_2)">
<path d="M51.4995 39.8115V29.6153C51.5001 29.4364 51.542 29.2601 51.622 29.1001C51.7019 28.94 51.8177 28.8006 51.9604 28.6927C52.1031 28.5848 52.2688 28.5113 52.4445 28.4779C52.6203 28.4445 52.8014 28.4522 52.9737 28.5003C54.1251 28.8105 55.1427 29.4903 55.8702 30.4352C56.5976 31.3801 56.9945 32.5377 56.9999 33.7302C56.9999 35.4727 55.1415 38.3736 53.5848 40.4978C53.4404 40.6938 53.2378 40.8392 53.0059 40.9132C52.7741 40.9872 52.5247 40.9861 52.2935 40.91C52.0623 40.8339 51.861 40.6867 51.7185 40.4894C51.5759 40.2921 51.4992 40.0549 51.4995 39.8115Z" fill="white"/>
</g>
<path d="M32.2927 36.4307C31.7322 36.9946 31.0655 37.4416 30.3312 37.7461C29.5968 38.0505 28.8093 38.2063 28.0143 38.2044C27.2193 38.2063 26.4318 38.0505 25.6975 37.7461C24.9631 37.4416 24.2964 36.9946 23.7359 36.4307C23.6338 36.3286 23.5527 36.2073 23.4974 36.0738C23.4422 35.9403 23.4137 35.7973 23.4137 35.6528C23.4137 35.5083 23.4422 35.3653 23.4974 35.2318C23.5527 35.0983 23.6338 34.9771 23.7359 34.8749C23.8381 34.7728 23.9594 34.6917 24.0928 34.6364C24.2263 34.5812 24.3693 34.5527 24.5138 34.5527C24.6583 34.5527 24.8013 34.5812 24.9348 34.6364C25.0683 34.6917 25.1896 34.7728 25.2917 34.8749C26.0144 35.5959 26.9935 36.0008 28.0143 36.0009C29.0351 36.0008 30.0143 35.5959 30.7369 34.8749C30.9432 34.6686 31.223 34.5527 31.5148 34.5527C31.8066 34.5527 32.0864 34.6686 32.2927 34.8749C32.499 35.0812 32.6149 35.361 32.6149 35.6528C32.6149 35.9446 32.499 36.2244 32.2927 36.4307Z" fill="white"/>
<path d="M47.8287 21.5044L46.3386 28.4019C46.1282 29.3421 45.6062 30.1824 44.8486 30.7898C44.1667 31.3556 43.3164 31.6801 42.4325 31.7051H33.3743C32.4904 31.6884 31.6317 31.3722 30.9499 30.8065C30.1922 30.2074 29.6703 29.3671 29.4598 28.4269L28.618 24.483H26.8164L25.9746 28.4685C25.7641 29.392 25.2422 30.224 24.493 30.8148C23.8111 31.3722 22.9524 31.6884 22.0685 31.7051H12.9935C12.1095 31.6884 11.2509 31.3806 10.569 30.8231C9.81132 30.224 9.28096 29.392 9.07892 28.4518L7.58887 21.5044C7.36999 20.5309 7.57203 19.5075 8.13606 18.6838C8.7506 17.8684 9.73555 17.4025 10.7626 17.4274H44.6634C45.6988 17.3941 46.6754 17.8684 47.2815 18.6921C47.8539 19.5158 48.056 20.5309 47.8287 21.5044Z" fill="black"/>
</svg>
