<svg width="133" height="94" viewBox="0 0 133 94" fill="none" xmlns="http://www.w3.org/2000/svg">
<mask id="mask0_84_442" style="mask-type:luminance" maskUnits="userSpaceOnUse" x="52" y="0" width="44" height="28">
<path d="M52.1902 0H95.436V27.2189H52.1902V0Z" fill="white"/>
</mask>
<g mask="url(#mask0_84_442)">
<path d="M73.8134 27.2185L61.1689 14.5735L52.1902 5.59584C58.8061 1.92566 66.2473 -0.000154694 73.8131 -0.000244138C81.3788 -0.000333581 88.8201 1.92531 95.436 5.59533L86.4583 14.573L73.8134 27.2185Z" fill="#0ACF97"/>
</g>
<path d="M73.5711 93.4428C83.1464 93.4418 92.4877 90.4834 100.318 84.9721C108.148 79.4608 114.085 71.6657 117.317 62.6523C120.549 53.639 120.919 43.8474 118.375 34.6162C115.831 25.3849 110.498 17.1646 103.105 11.0791L98.6529 15.5317L73.4274 40.7571L48.205 15.5317L43.8808 11.2074C36.5204 17.3106 31.222 25.5358 28.7083 34.7611C26.1947 43.9864 26.5882 53.7625 29.8351 62.7559C33.0821 71.7493 39.0245 79.522 46.8516 85.0139C54.6787 90.5057 64.0095 93.4492 73.5711 93.4428Z" fill="#0ACF97"/>
<path d="M53.868 23.4058H94.6148C103.65 23.4058 110.975 30.7305 110.975 39.766V46.7104C110.975 55.746 103.65 63.0707 94.6148 63.0707H53.868C44.8325 63.0707 37.5078 55.746 37.5078 46.7104V39.766C37.5078 30.7305 44.8325 23.4058 53.868 23.4058Z" fill="#6564DF"/>
<path d="M92.2517 26.3907C95.5838 26.3909 98.8411 27.3792 101.612 29.2306C104.382 31.0819 106.541 33.7132 107.816 36.7918C109.091 39.8703 109.425 43.2578 108.775 46.5259C108.125 49.794 106.52 52.7959 104.164 55.1521C102.603 56.7214 100.747 57.9657 98.7022 58.8128C96.6574 59.6599 94.465 60.0931 92.2517 60.0873H56.231C52.8989 60.0871 49.6416 59.0988 46.8711 57.2474C44.1006 55.3961 41.9414 52.7648 40.6663 49.6862C39.3912 46.6077 39.0577 43.2202 39.7078 39.9521C40.3579 36.684 41.9625 33.6821 44.3187 31.3259C45.8794 29.7567 47.7359 28.5125 49.7806 27.6655C51.8253 26.8185 54.0178 26.3854 56.231 26.3913H92.2517M92.2517 21.7434H56.231C50.5299 21.7434 45.0624 24.0081 41.0311 28.0394C36.9999 32.0707 34.7351 37.5382 34.7351 43.2393C34.7351 48.9403 36.9999 54.4079 41.0311 58.4391C45.0624 62.4704 50.5299 64.7351 56.231 64.7351H92.2517C97.9528 64.7351 103.42 62.4704 107.452 58.4391C111.483 54.4079 113.748 48.9403 113.748 43.2393C113.748 37.5382 111.483 32.0707 107.452 28.0394C103.42 24.0081 97.9528 21.7434 92.2517 21.7434Z" fill="white"/>
<path d="M60.8788 49.6294C57.3493 49.6294 54.4881 46.7681 54.4881 43.2386C54.4881 39.7091 57.3493 36.8479 60.8788 36.8479C64.4083 36.8479 67.2695 39.7091 67.2695 43.2386C67.2695 46.7681 64.4083 49.6294 60.8788 49.6294Z" fill="white"/>
<path d="M73.8135 79.2738C75.9289 79.2837 77.9963 78.6431 79.7355 77.4388C81.4746 76.2345 82.8016 74.5247 83.5366 72.541H64.0904C64.8254 74.5247 66.1524 76.2345 67.8916 77.4388C69.6308 78.6431 71.6981 79.2837 73.8135 79.2738Z" fill="white"/>
<mask id="mask1_84_442" style="mask-type:luminance" maskUnits="userSpaceOnUse" x="0" y="42" width="27" height="28">
<path d="M0.000869399 50.0416L8.58057 42.0439L26.5248 61.3014L17.9451 69.299L0.000869399 50.0416Z" fill="white"/>
</mask>
<g mask="url(#mask1_84_442)">
<path d="M10.2424 43.8279L24.8641 59.5197C25.1197 59.7958 25.3072 60.1282 25.412 60.4907C25.5168 60.8532 25.5361 61.2362 25.4683 61.6097C25.4005 61.9833 25.2475 62.3373 25.0212 62.6442C24.7949 62.9511 24.5014 63.2026 24.1636 63.379C21.9228 64.5758 19.3606 65.0093 16.871 64.6128C14.3813 64.2163 12.102 63.0118 10.3835 61.1845C7.88463 58.5028 6.62355 51.3361 6.00546 45.8035C5.94959 45.292 6.0571 44.7737 6.31266 44.3226C6.56821 43.8716 6.95875 43.5108 7.42853 43.2917C7.89831 43.0726 8.42333 43.0065 8.92864 43.1028C9.43396 43.1991 9.89375 43.4529 10.2424 43.8279Z" fill="white"/>
</g>
<mask id="mask2_84_442" style="mask-type:luminance" maskUnits="userSpaceOnUse" x="121" y="60" width="13" height="27">
<path d="M121.39 60.3669H133.009V86.8H121.39V60.3669Z" fill="white"/>
</mask>
<g mask="url(#mask2_84_442)">
<path d="M121.39 84.3513V62.8125C121.391 62.4346 121.48 62.0621 121.649 61.724C121.817 61.386 122.062 61.0915 122.364 60.8635C122.665 60.6355 123.015 60.4803 123.386 60.4098C123.757 60.3393 124.14 60.3555 124.504 60.4571C126.936 61.1124 129.086 62.5484 130.623 64.5444C132.159 66.5404 132.998 68.9859 133.009 71.5049C133.009 75.186 129.083 81.3139 125.795 85.8012C125.49 86.2152 125.062 86.5223 124.572 86.6787C124.082 86.8351 123.556 86.8327 123.067 86.6719C122.579 86.5111 122.154 86.2002 121.852 85.7835C121.551 85.3667 121.389 84.8655 121.39 84.3513Z" fill="white"/>
</g>
<path d="M93.2471 43.7519C92.4318 42.9316 91.4619 42.2812 90.3935 41.8383C89.3251 41.3954 88.1795 41.1689 87.0229 41.1717C85.8664 41.1689 84.7208 41.3954 83.6524 41.8383C82.584 42.2812 81.6141 42.9316 80.7987 43.7519C80.6501 43.9005 80.5322 44.0769 80.4518 44.2711C80.3714 44.4653 80.33 44.6734 80.33 44.8836C80.33 45.0938 80.3714 45.3019 80.4518 45.4961C80.5322 45.6902 80.6501 45.8667 80.7987 46.0153C80.9474 46.1639 81.1238 46.2818 81.318 46.3622C81.5122 46.4427 81.7203 46.4841 81.9305 46.4841C82.1406 46.4841 82.3488 46.4427 82.5429 46.3622C82.7371 46.2818 82.9136 46.1639 83.0622 46.0153C84.1135 44.9663 85.5379 44.3772 87.023 44.3771C88.5082 44.377 89.9327 44.966 90.984 46.0149C91.2842 46.3151 91.6913 46.4837 92.1158 46.4837C92.5402 46.4837 92.9473 46.3151 93.2475 46.0149C93.5476 45.7148 93.7163 45.3077 93.7163 44.8832C93.7163 44.4587 93.5473 44.052 93.2471 43.7519Z" fill="white"/>
</svg>
