<svg width="127" height="87" viewBox="0 0 127 87" fill="none" xmlns="http://www.w3.org/2000/svg">
<g id="Frame" clip-path="url(#clip0_51_81)">
<g id="Group 125">
<g id="Group 101">
<g id="Clip path group">
<mask id="mask0_51_81" style="mask-type:luminance" maskUnits="userSpaceOnUse" x="43" y="0" width="41" height="26">
<g id="clip-path">
<path id="Rectangle 22" d="M83.4626 0H43.5444V25.3415H83.4626V0Z" fill="white"/>
</g>
</mask>
<g mask="url(#mask0_51_81)">
<g id="Group 86">
<path id="Path 18" d="M63.5033 25.3414L75.1748 13.5686L83.4626 5.2101C77.3558 1.79307 70.4872 8.32769e-05 63.5036 2.90083e-09C56.52 -8.32711e-05 49.6513 1.79274 43.5444 5.20963L51.8313 13.5681L63.5033 25.3414Z" fill="#0ACF97"/>
</g>
</g>
</g>
</g>
<path id="Subtraction 10" d="M63.7983 86.9982C54.9598 86.9973 46.3373 84.2429 39.1096 79.1118C31.8818 73.9806 26.4017 66.7231 23.4184 58.3315C20.435 49.9398 20.094 40.8236 22.4421 32.2291C24.7901 23.6345 29.7126 15.9812 36.5365 10.3154L40.6464 14.4609L63.9309 37.9465L87.2126 14.4609L91.204 10.4349C97.9981 16.1171 102.889 23.775 105.209 32.364C107.529 40.953 107.166 50.0548 104.169 58.4279C101.172 66.801 95.6867 74.0376 88.4618 79.1507C81.237 84.2637 72.6242 87.0042 63.7983 86.9982Z" fill="#0ACF97"/>
<g id="Group 108">
<path id="Rectangle 3" d="M82.306 21.6987H44.6945C36.3542 21.6987 29.5931 28.5183 29.5931 36.9306V43.396C29.5931 51.8083 36.3542 58.6279 44.6945 58.6279H82.306C90.6462 58.6279 97.4074 51.8083 97.4074 43.396V36.9306C97.4074 28.5183 90.6462 21.6987 82.306 21.6987Z" fill="#6564DF"/>
<path id="Rectangle 3 - Outline" d="M46.8757 24.4772C43.8 24.4774 40.7934 25.3975 38.236 27.1211C35.6787 28.8448 33.6856 31.2946 32.5086 34.1608C31.3317 37.027 31.0238 40.1809 31.6239 43.2235C32.224 46.2662 33.7051 49.0611 35.88 51.2548C37.3206 52.7159 39.0342 53.8743 40.9216 54.663C42.809 55.4517 44.8327 55.855 46.8757 55.8495H80.1248C83.2005 55.8494 86.2071 54.9293 88.7644 53.2056C91.3217 51.4819 93.3149 49.0321 94.4918 46.1659C95.6688 43.2997 95.9767 40.1459 95.3766 37.1032C94.7765 34.0605 93.2953 31.2656 91.1205 29.072C89.6798 27.611 87.9662 26.4526 86.0788 25.664C84.1914 24.8754 82.1677 24.4722 80.1248 24.4777H46.8757M46.8757 20.1504H80.1248C85.3871 20.1504 90.434 22.2589 94.155 26.0121C97.8761 29.7653 99.9666 34.8558 99.9666 40.1636C99.9666 45.4714 97.8761 50.5619 94.155 54.3151C90.434 58.0683 85.3871 60.1768 80.1248 60.1768H46.8757C41.6133 60.1768 36.5665 58.0683 32.8454 54.3151C29.1243 50.5619 27.0339 45.4714 27.0339 40.1636C27.0339 34.8558 29.1243 29.7653 32.8454 26.0121C36.5665 22.2589 41.6133 20.1504 46.8757 20.1504Z" fill="white"/>
</g>
<path id="Subtraction 11" d="M57.9739 43.7284H46.5043C46.2946 42.8533 46.2845 41.9417 46.4747 41.0621C46.665 40.1825 47.0507 39.3579 47.6027 38.6504C48.1547 37.943 48.8587 37.3711 49.6617 36.9779C50.4646 36.5847 51.3456 36.3804 52.2382 36.3804C53.1307 36.3804 54.0117 36.5847 54.8146 36.9779C55.6176 37.3711 56.3216 37.943 56.8736 38.6504C57.4257 39.3579 57.8113 40.1825 58.0016 41.0621C58.1918 41.9417 58.1817 42.8533 57.972 43.7284H57.9739Z" fill="white"/>
<path id="Subtraction 12" d="M79.608 43.7284H68.1385C67.9288 42.8533 67.9186 41.9417 68.1089 41.0621C68.2991 40.1825 68.6848 39.3579 69.2369 38.6504C69.7889 37.943 70.4929 37.3711 71.2958 36.9779C72.0988 36.5847 72.9797 36.3804 73.8723 36.3804C74.7649 36.3804 75.6458 36.5847 76.4488 36.9779C77.2517 37.3711 77.9557 37.943 78.5078 38.6504C79.0598 39.3579 79.4455 40.1825 79.6357 41.0621C79.826 41.9417 79.8159 42.8533 79.6061 43.7284H79.608Z" fill="white"/>
<g id="Group 109">
<g id="Clip path group_2">
<mask id="mask1_51_81" style="mask-type:luminance" maskUnits="userSpaceOnUse" x="107" y="34" width="21" height="28">
<g id="clip-path-2">
<path id="Rectangle 17" d="M127 38.5176L117.016 34.4365L107.916 57.2259L117.899 61.3069L127 38.5176Z" fill="white"/>
</g>
</mask>
<g mask="url(#mask1_51_81)">
<g id="Group 50">
<path id="Path 16" d="M116.173 36.5476L108.758 55.1173C108.629 55.4436 108.577 55.7958 108.605 56.1466C108.634 56.4974 108.743 56.8372 108.923 57.1396C109.104 57.442 109.351 57.6988 109.646 57.89C109.941 58.0812 110.275 58.2015 110.623 58.2418C112.938 58.5311 115.28 58.0481 117.287 56.8669C119.295 55.6858 120.857 53.8719 121.734 51.7042C123.002 48.5305 121.738 41.8684 120.457 36.8447C120.338 36.3807 120.076 35.9656 119.709 35.6587C119.342 35.3519 118.889 35.1689 118.414 35.136C117.939 35.103 117.466 35.2218 117.064 35.4753C116.662 35.7288 116.35 36.1041 116.173 36.5476Z" fill="#6564DF"/>
</g>
</g>
</g>
</g>
<g id="Group 111">
<g id="Clip path group_3">
<mask id="mask2_51_81" style="mask-type:luminance" maskUnits="userSpaceOnUse" x="0" y="34" width="20" height="28">
<g id="clip-path-2_2">
<path id="Rectangle 17_2" d="M9.9838 34.4361L6.10352e-05 38.5171L9.10073 61.3064L19.0845 57.2254L9.9838 34.4361Z" fill="white"/>
</g>
</mask>
<g mask="url(#mask2_51_81)">
<g id="Group 50_2">
<path id="Path 16_2" d="M10.8268 36.5471L18.2424 55.1169C18.3714 55.4431 18.4236 55.7954 18.3949 56.1461C18.3661 56.4969 18.2573 56.8367 18.0768 57.1392C17.8963 57.4416 17.6491 57.6983 17.3543 57.8895C17.0596 58.0807 16.7253 58.2011 16.3776 58.2413C14.0621 58.5307 11.7206 58.0476 9.71301 56.8665C7.70545 55.6853 6.14301 53.8714 5.26593 51.7037C3.99858 48.5301 5.26209 41.868 6.54265 36.8442C6.66214 36.3802 6.92411 35.9651 7.29116 35.6583C7.65822 35.3514 8.11161 35.1685 8.58663 35.1355C9.06164 35.1026 9.534 35.2213 9.93629 35.4748C10.3386 35.7283 10.6502 36.1036 10.8268 36.5471Z" fill="#6564DF"/>
</g>
</g>
</g>
</g>
<path id="Path 15" d="M72.1334 71.6505C71.0406 72.7594 69.7405 73.6387 68.3086 74.2375C66.8766 74.8363 65.3411 75.1426 63.7909 75.1388C62.2408 75.1426 60.7053 74.8363 59.2733 74.2375C57.8413 73.6387 56.5413 72.7594 55.4485 71.6505C55.2493 71.4496 55.0913 71.2111 54.9835 70.9486C54.8757 70.6861 54.8202 70.4047 54.8202 70.1206C54.8202 69.8364 54.8757 69.5551 54.9835 69.2926C55.0913 69.0301 55.2493 68.7916 55.4485 68.5906C55.6477 68.3897 55.8842 68.2304 56.1444 68.1216C56.4047 68.0129 56.6836 67.9569 56.9653 67.9569C57.247 67.9569 57.526 68.0129 57.7862 68.1216C58.0465 68.2304 58.2829 68.3897 58.4821 68.5906C59.8912 70.0087 61.8004 70.8051 63.7909 70.8051C65.7814 70.8051 67.6906 70.0087 69.0997 68.5906C69.502 68.1849 70.0476 67.9569 70.6165 67.9569C71.1855 67.9569 71.7311 68.1849 72.1334 68.5906C72.5356 68.9964 72.7616 69.5467 72.7616 70.1206C72.7616 70.6944 72.5356 71.2447 72.1334 71.6505Z" fill="white"/>
</g>
</g>
<defs>
<clipPath id="clip0_51_81">
<rect width="127" height="87" fill="white"/>
</clipPath>
</defs>
</svg>
