<svg width="16" height="22" viewBox="0 0 16 22" fill="none" xmlns="http://www.w3.org/2000/svg">
<g id="Layer_1" clip-path="url(#clip0_18_99)">
<path id="Vector" d="M8.75 0H6.75C3.03 0 0 3.03 0 6.75V14.75C0 18.47 3.03 21.5 6.75 21.5H8.75C12.47 21.5 15.5 18.47 15.5 14.75V6.75C15.5 3.03 12.47 0 8.75 0ZM14 14.75C14 17.64 11.64 20 8.75 20H6.75C3.86 20 1.5 17.64 1.5 14.75V6.75C1.5 3.86 3.86 1.5 6.75 1.5H8.75C11.64 1.5 14 3.86 14 6.75V14.75ZM11.28 12.22C11.57 12.51 11.57 12.99 11.28 13.28L8.28 16.28C8.13 16.43 7.94 16.5 7.75 16.5C7.56 16.5 7.37 16.43 7.22 16.28L4.22 13.28C3.93 12.99 3.93 12.51 4.22 12.22C4.51 11.93 4.99 11.93 5.28 12.22L7 13.94V5.75C7 5.34 7.34 5 7.75 5C8.16 5 8.5 5.34 8.5 5.75V13.94L10.22 12.22C10.51 11.93 10.99 11.93 11.28 12.22Z" fill="white"/>
</g>
<defs>
<clipPath id="clip0_18_99">
<rect width="15.5" height="21.5" fill="white"/>
</clipPath>
</defs>
</svg>
