<svg width="7" height="11" viewBox="0 0 7 11" fill="none" xmlns="http://www.w3.org/2000/svg">
<path d="M5.6113 6.01745C5.51203 6.01752 5.41372 5.99797 5.32202 5.95993C5.23033 5.92188 5.14705 5.8661 5.07697 5.79578L0.99986 1.71867C0.865074 1.57557 0.791333 1.38559 0.794274 1.18902C0.797216 0.992459 0.876609 0.804771 1.01562 0.665763C1.15462 0.526756 1.34231 0.447362 1.53888 0.444421C1.73544 0.441479 1.92542 0.515221 2.06853 0.650006L6.14564 4.72712C6.25127 4.83284 6.32319 4.96751 6.35233 5.11409C6.38146 5.26068 6.36649 5.41261 6.30931 5.55069C6.25212 5.68878 6.1553 5.80681 6.03106 5.88989C5.90683 5.97297 5.76076 6.01736 5.6113 6.01745Z" fill="#030303"/>
<path d="M1.53384 10.0956C1.38439 10.0955 1.23832 10.0511 1.11408 9.96801C0.989846 9.88494 0.893021 9.7669 0.835841 9.62882C0.77866 9.49074 0.76369 9.33881 0.792821 9.19222C0.821952 9.04563 0.893877 8.91097 0.999509 8.80524L5.07662 4.72813C5.21973 4.59335 5.40971 4.5196 5.60627 4.52255C5.80283 4.52549 5.99052 4.60488 6.12953 4.74389C6.26854 4.8829 6.34793 5.07058 6.35087 5.26715C6.35381 5.46371 6.28007 5.65369 6.14529 5.7968L2.06818 9.87391C1.9981 9.94423 1.91482 10 1.82312 10.0381C1.73143 10.0761 1.63312 10.0956 1.53384 10.0956Z" fill="#030303"/>
</svg>
