<svg width="131" height="131" viewBox="0 0 131 131" fill="none" xmlns="http://www.w3.org/2000/svg">
<rect width="131" height="131" rx="29" fill="#6058CE"/>
<path d="M61.9961 34C77.464 34 89.9922 46.5617 89.9922 62.0709C89.9922 68.5623 87.8225 74.4922 84.148 79.2643L95.9764 91.019C97.3412 92.3874 97.3412 94.598 95.9764 95.9665C94.7166 97.2297 92.7218 97.3349 91.357 96.2823L91.0421 96.0016L79.1787 84.2118C74.4194 87.9312 68.4702 90.1067 61.9961 90.1067C46.5283 90.1418 34 77.58 34 62.0709C34 46.5617 46.5283 34 61.9961 34ZM61.9961 41.0177C50.4127 41.0177 40.999 50.4566 40.999 62.0709C40.999 73.6852 50.4127 83.124 61.9961 83.124C73.5795 83.124 82.9932 73.6852 82.9932 62.0709C82.9932 50.4566 73.5795 41.0177 61.9961 41.0177Z" fill="white"/>
</svg>
