<svg width="26" height="21" viewBox="0 0 26 21" fill="none" xmlns="http://www.w3.org/2000/svg">
<path d="M23.7841 0.18468C23.7841 0.18468 26.192 -0.721592 25.9877 1.48107C25.9196 2.39334 25.3192 5.5743 24.855 9.01333L23.2518 19.2104C23.2518 19.2104 23.1156 20.7048 21.9148 20.9629C20.7139 21.221 18.9065 20.0566 18.5722 19.7926C18.306 19.6005 13.5646 16.6776 11.8933 15.2432C11.4229 14.8531 10.8905 14.0729 11.9614 13.1666L18.9746 6.67263C19.7792 5.89239 20.5777 4.07385 17.2352 6.28251L7.88226 12.4524C7.88226 12.4524 6.81141 13.1006 4.81207 12.5184L0.466767 11.222C0.466767 11.222 -1.13642 10.2497 1.59952 9.27141C8.2846 6.22249 16.5048 3.10756 23.7841 0.18468Z" fill="#6058CE"/>
</svg>
