<svg width="19" height="15" viewBox="0 0 19 15" fill="none" xmlns="http://www.w3.org/2000/svg">
<path id="Vector" d="M17.3807 0.131914C17.3807 0.131914 19.1403 -0.515423 18.991 1.05791C18.9413 1.70953 18.5025 3.98164 18.1632 6.43809L16.9917 13.7217C16.9917 13.7217 16.8922 14.7892 16.0146 14.9735C15.1371 15.1579 13.8163 14.3262 13.572 14.1375C13.3775 14.0004 9.91258 11.9126 8.69127 10.888C8.34749 10.6093 7.95848 10.052 8.74102 9.4047L13.866 4.76616C14.4541 4.20885 15.0376 2.90989 12.5949 4.48751L5.76011 8.89455C5.76011 8.89455 4.97757 9.35754 3.51651 8.9417L0.341099 8.01571C0.341099 8.01571 -0.830458 7.32122 1.16888 6.62244C6.05413 4.44464 12.0612 2.21968 17.3807 0.131914Z" fill="white"/>
</svg>
