<svg width="19" height="22" viewBox="0 0 19 22" fill="none" xmlns="http://www.w3.org/2000/svg">
<g clip-path="url(#clip0_84_190)">
<path d="M0.0425281 18.3992C-0.106099 19.2896 0.145657 20.2012 0.734099 20.894C1.32861 21.5959 2.1961 22.0001 3.11517 22.0001H15.885C16.7949 22.0001 17.6564 21.605 18.2539 20.9152C18.8332 20.2437 19.0941 19.3594 18.9697 18.4873C18.5633 15.6918 17.0861 13.6984 14.5777 12.5589C10.3676 10.6476 6.37586 10.9545 3.03024 13.4523C1.38927 14.6738 0.38528 16.339 0.0425281 18.3992ZM4.11612 14.9139C5.70249 13.7318 7.42535 13.1393 9.27561 13.1393C10.7194 13.1393 12.236 13.5009 13.8224 14.221C15.7576 15.0992 16.8495 16.5821 17.165 18.7517C17.2165 19.1042 17.1134 19.4476 16.8738 19.7241C16.6251 20.0128 16.2611 20.1799 15.8819 20.1799H3.11213C2.72995 20.1799 2.36596 20.0128 2.12027 19.718C1.87762 19.4293 1.77449 19.0677 1.83515 18.7001C2.10511 17.0987 2.84824 15.8589 4.11612 14.9139Z" fill="white"/>
<path d="M9.53954 10.6809C10.9742 10.6657 12.3847 10.0489 13.4099 8.99144C14.4078 7.96133 14.9447 6.64558 14.9205 5.28122C14.8689 2.40359 12.3877 0 9.48495 0H9.40912C6.44567 0.0425414 4.05551 2.4674 4.07977 5.40884C4.09191 6.81878 4.65305 8.14061 5.66311 9.13122C6.68226 10.1309 8.03204 10.6809 9.47281 10.6809C9.49404 10.6809 9.51831 10.6809 9.53954 10.6809ZM5.8997 5.39365C5.88453 3.45193 7.46786 1.85055 9.43641 1.8232H9.48495C11.3837 1.8232 13.0672 3.44282 13.1005 5.31768C13.1157 6.19282 12.7608 7.04669 12.1056 7.72431C11.4171 8.43536 10.4738 8.84862 9.52134 8.86077C8.55678 8.87293 7.62862 8.50829 6.94312 7.8337C6.27885 7.18039 5.9088 6.31436 5.8997 5.39365Z" fill="white"/>
</g>
<defs>
<clipPath id="clip0_84_190">
<rect width="19" height="22" fill="white"/>
</clipPath>
</defs>
</svg>
