<svg width="25" height="24" viewBox="0 0 25 24" fill="none" xmlns="http://www.w3.org/2000/svg">
<g clip-path="url(#clip0_84_301)">
<path d="M15.1627 14.9893V15.479C15.1627 16.9015 15.1551 18.3252 15.167 19.7477C15.1703 20.1575 15.1984 20.5739 15.2709 20.9759C15.5543 22.5595 16.5571 23.6 18.0672 23.9132C19.6097 24.233 20.9251 23.6678 21.7948 22.3152C21.8457 22.2352 21.9095 22.1642 21.9949 22.052C22.0858 22.635 22.1658 23.1558 22.2459 23.6667H25V21.9454H23.6316V13.2147H20.0229V15.0059H21.718C21.718 16.6439 21.7927 18.2408 21.6931 19.8255C21.6185 21.0137 20.6406 21.982 19.5513 22.2341C18.3906 22.5029 17.4365 21.9287 17.1477 20.7461C17.0482 20.3385 17.0071 19.9054 17.0038 19.4845C16.9897 17.5567 16.9973 15.6278 16.9973 13.7C16.9973 13.5456 16.9973 13.3902 16.9973 13.2147H13.6418V14.9904H15.1638L15.1627 14.9893ZM24.0437 4.06866C24.0437 3.28021 24.0589 2.52396 24.0318 1.76883C24.0254 1.58893 23.9215 1.35572 23.7863 1.24801C22.5412 0.250783 21.1014 -0.095691 19.5513 0.0220214C16.7983 0.229684 14.5439 2.85156 14.6792 5.65889C14.8501 9.21469 17.8281 11.6189 21.2388 10.946C22.539 10.6894 23.5559 9.97205 24.3618 8.87599C23.8891 8.5062 23.4477 8.16083 22.9458 7.76772C22.8993 7.84878 22.8701 7.92763 22.8181 7.98427C21.7407 9.16361 20.4318 9.58338 18.9369 9.05922C17.5036 8.55617 16.7691 7.41458 16.636 5.89987C16.503 4.38626 17.0006 3.10031 18.2705 2.25745C19.4972 1.44345 20.7996 1.52341 22.0815 2.1675C22.1842 2.21969 22.2708 2.40958 22.2773 2.54062C22.3 3.04146 22.2859 3.54451 22.2859 4.06866H24.0437ZM8.63766 8.0831C8.56518 7.87544 8.52841 7.7766 8.49487 7.67666C7.71061 5.32907 6.92311 2.9826 6.14967 0.630572C6.05772 0.351838 5.93981 0.234126 5.63584 0.24301C4.82022 0.267441 4.0035 0.251894 3.18788 0.251894C3.06564 0.251894 2.94232 0.251894 2.82658 0.251894V2.04756C3.2928 2.04756 3.73307 2.06866 4.17009 2.0409C4.49353 2.0198 4.64281 2.13418 4.75098 2.45289C5.58284 4.88265 6.432 7.30575 7.28116 9.72885C7.42071 10.1264 7.4802 10.6661 7.76146 10.8671C8.04379 11.0681 8.55978 10.906 8.96975 10.946C9.29319 10.977 9.41218 10.8371 9.51711 10.544C10.4734 7.87877 11.4577 5.22358 12.4053 2.55506C12.5514 2.14307 12.745 1.9987 13.1561 2.0409C13.5217 2.07755 13.8927 2.04867 14.267 2.04867V0.251894C13.3865 0.251894 12.5319 0.267441 11.6795 0.24412C11.3701 0.236347 11.2327 0.325186 11.1311 0.637235C10.5545 2.41292 9.95197 4.1786 9.3581 5.94762C9.13202 6.6228 8.90377 7.29687 8.63982 8.0831H8.63766ZM5.20748 14.836V21.9787H3.57406V23.6689H11.4177V21.9854H7.05292C7.05292 21.8121 7.05292 21.6822 7.05292 21.5523C7.05292 20.3563 7.04426 19.1592 7.05508 17.9632C7.06374 16.9315 7.48129 16.0864 8.24391 15.4257C8.72312 15.0115 9.28346 14.8038 9.94873 14.8083V16.3663H11.6579V13.2191C9.73021 12.9804 8.02324 13.2858 6.86578 15.2569C6.8171 14.484 6.77816 13.8566 6.73813 13.218H3.53728C3.53728 13.6656 3.55134 14.0887 3.53187 14.5095C3.51889 14.786 3.63247 14.8471 3.87478 14.8393C4.3118 14.8238 4.7499 14.8349 5.20531 14.8349L5.20748 14.836ZM1.75133 23.7144V21.9276H0V23.7144H1.75133Z" fill="#6058CE"/>
</g>
<defs>
<clipPath id="clip0_84_301">
<rect width="25" height="24" fill="white"/>
</clipPath>
</defs>
</svg>
