<svg width="40" height="40" viewBox="0 0 40 40" fill="none" xmlns="http://www.w3.org/2000/svg">
<g clip-path="url(#clip0_84_71)">
<path d="M20 0C8.96 0 0 8.96 0 20C0 31.04 8.96 40 20 40C31.04 40 40 31.04 40 20C39.9867 8.96 31.04 0 20 0ZM25.8667 21.0933L20.9333 24.5467L18.3467 26.36C17.7467 26.7867 16.9067 26.64 16.4933 26.0267C16.3333 25.8 16.2533 25.5333 16.2533 25.2667V14.76C16.2533 14.0267 16.8533 13.4267 17.5867 13.4267C17.8533 13.4267 18.12 13.5067 18.3467 13.6667L20.9333 15.48L25.8667 18.9333C26.4667 19.36 26.6133 20.1867 26.2 20.7867C26.1067 20.92 26 21.0267 25.8667 21.12V21.0933Z" fill="#F84437"/>
</g>
<defs>
<clipPath id="clip0_84_71">
<rect width="40" height="40" fill="white"/>
</clipPath>
</defs>
</svg>
